<?xml version="1.0" encoding="utf-8"?>
<!-- Generator: Adobe Illustrator 22.1.0, SVG Export Plug-In . SVG Version: 6.00 Build 0)  -->
<svg version="1.1" id="Layer_1" xmlns="http://www.w3.org/2000/svg" xmlns:xlink="http://www.w3.org/1999/xlink" x="0px" y="0px"
	 viewBox="0 0 64 88" style="enable-background:new 0 0 64 88;" xml:space="preserve">
<style type="text/css">
	.st0{fill-rule:evenodd;clip-rule:evenodd;fill:none;}
</style>
<path class="st0" d="M52.9,6.5c1.1,0,4.5,3,3.6,3.8c-1.3,1.1-5.6-1.3-6.7-1.7c-2.7-1.1-6.8-0.7-9.4,0.6c-3.7,1.8-4.6,2.8-4.5,7.3
	c0.2,6.4-2.1,23.6,7.4,23.6c-0.1-0.4,6.5,2.1,7.7,2.2c4.1,0.3,8.5-0.6,12.6,0.5c-3.6,4.6-12.5,2.8-17.4,3.5
	c-1.8,0.3-7.5,0.6-7.7,2.4c-0.4,2.9-1.2,2.5-0.9,5.2c1.1,2,0.7,3.9,0.6,7.8c-0.1,2.6-1.3,4.3-0.6,6.6c1,0.6,0.2,1.7,0,2.5
	c-0.3,1.3,1.3,3.2,2,4.1c1.5,2,4,5.6,7,5.3c2.1-0.2,4.8-0.8,6.4-0.7c3.1-0.9,6.9-6.4,6.7-4.2c0.5-0.1-0.7,6.2-4.3,7.5
	c-4,2.1-9.1,2.6-13.6,3.5c-6.6,1.2-11,1.1-17.8,0.4c-1.3-0.1-10-0.7-11.1-2.7c-1.1,0.3-3.6-4.2-5.3-4.2c-0.4-1.7,5.8,0.3,6.5,0.5
	c3.9,1.6,5.8,0.9,9.7-0.1c7.1-3.9,4.7-15.7,4.2-22.2c-0.3-4.5,0.6-6.5-2.9-9.5c-1.6,0.1-1.2-0.8-3-0.8c-2.1,0-4.1-1.5-6.2-1.5
	c-3.1-0.1-4.7,0.8-7.3,1.2c-2.7,0.4-5.1-1.4-7.6-1.5c3-5.1,12.4-1.9,16.8-4.1c2.5-1.2,4.3-0.2,6.6-1.7c3.6-2.3,2.8-6.7,2.5-10.5
	c-0.6-6.1,3.4-21-6.7-20.9c-5.5,0.1-6.4,1-10.5,3.1c-1.1,0.6-5.4,0.6-4.7-1.3C6,8.3,10.5,8,12.3,6.6c5.7-4.3,11.7-4.5,19.1-4.7
	C37.7,1.6,48,1.9,52.9,6.5"/>
</svg>
