<?xml version="1.0" encoding="utf-8"?>
<!-- Generator: Adobe Illustrator 22.1.0, SVG Export Plug-In . SVG Version: 6.00 Build 0)  -->
<svg version="1.1" id="Layer_1" xmlns="http://www.w3.org/2000/svg" xmlns:xlink="http://www.w3.org/1999/xlink" x="0px" y="0px"
	 viewBox="0 0 36 114" style="enable-background:new 0 0 36 114;" xml:space="preserve">
<style type="text/css">
	.st0{fill-rule:evenodd;clip-rule:evenodd;fill:#FFFFFF;}
</style>
<path class="st0" d="M10.4,111.7c3,1.5,7.8-1.6,8.9-4.7c0.2-0.4,1.3-3.3,1.1-3.4c0.3-1,0.6-3.6,0.1-4.6c-0.9-1.6-2.5-3.2-4.2-4.2
	c-2.9-1.7-2.4-2.3-2.8-5.2c-0.2-1.7,0.2-3.5,0.1-5.6c0-1.6-0.1-1,0-2.5c0-2.3-1-2.6,1.8-3.5c1.3,1.1,4.4-0.2,5.3-1.4
	c1.6-1.9-1.9-4.3-2.5-3.3c-1.2-1.1-2.9,0.2-4.3-0.8c-2.5-1.7,0-3.8,2.2-3.6c0.2,0,6.1,0.1,4.7-1.3c1.1-1.3-0.8-4-2.6-3.9
	c-1.8,0.1-3.2,0.4-4.7-0.6c-2.5-1.7-0.9-3.4,1.6-3.4c1,0,8.1-0.5,5.5-3.4c-2.7-2.9-7.1,2.2-8.2-3.3c-0.8-4.2,7.1-5.1,10.4-5.7
	c2.1-0.4,3,0.3,5.2,0.7c1.2,0.7,3.6,3.9,5,3.7c1.3-0.2-0.3-2.2-0.8-2.5c-0.9-0.8-1.1-1.4-1.7-2.4c-0.7-1.3-1.4-1.4-2.2-2.5
	c-1.9-5.6-5.6-7-7.5-11c-0.8-1.8-7.4-14.7-7.7-15.6c-0.8-2.6-2.8-4.7-3.9-7.2C9,9.3,8.7,7.3,8.6,5.9C8.4,4.3,5.5,0.8,5.9,2.2
	c-0.7,2,0.6,3.4,0.5,5.3c-0.1,3.3,0.9,6.1,0.4,9.2C6.7,17.4,6.7,21,7,21.9c-0.5,1.3,0.1,4.1,0.3,5.4c0.7,3.7-1.4,16.7,0.1,20
	c-0.7,1.4-0.1,12-0.2,12.8c0,0.5-0.1,6.8,0.1,7.6c0.3,1.4-0.3,2.8-0.1,4.1c0.6,3-0.1,7.8-0.3,11.1c-0.1,1.8,1.4,8.7-1.3,11.2
	c-2.1,1.9-4,6.5-3.1,9.1c-1,1.4,1.1,3.8,1.9,4.9C6.2,110.4,7.8,110.7,10.4,111.7 M8.6,106.5c-2.9-2.2-3-5.8-1.3-8.4
	c0.9-1.3,2.8-1.6,4.8-1.7c0.4,0,5.8,3.6,4.7,4.6c0.6,1.1-1.6,7.3-3.8,6.5C12.6,107.9,8.1,108.1,8.6,106.5"/>
</svg>
