<?xml version="1.0" encoding="utf-8"?>
<!-- Generator: Adobe Illustrator 22.1.0, SVG Export Plug-In . SVG Version: 6.00 Build 0)  -->
<svg version="1.1" id="Layer_1" xmlns="http://www.w3.org/2000/svg" xmlns:xlink="http://www.w3.org/1999/xlink" x="0px" y="0px"
	 viewBox="0 0 46 122" style="enable-background:new 0 0 46 122;" xml:space="preserve">
<style type="text/css">
	.st0{fill-rule:evenodd;clip-rule:evenodd;fill:#FFFFFF;}
</style>
<path class="st0" d="M19.2,14.7c-0.9,5.4-4.9,11.3-6.3,13c-3.3,3.9-6.2,10.8-8.1,15.7c-2.3,5.8-3.1,7.5-3.3,13.7
	c0.9,1-0.1,4.2,0.1,5.6c0.3,2.4,1,2.2,0.9,4.6C2.3,69.6,4,71.7,3.1,74c-1.3,3.5,3,1.4,2,0.2c1.4-1.4,0.3-19.5,0.7-20.5
	c2-5,3.2-7.8,6.3-11.9c0.7-0.9,1.4-1.9,2.5-2.8c2.1-1.9,0.9-0.1,2.4-1c2.7,3,0.2,5,1.7,8.5c-0.7,1.2,0.2,4.5,0.1,6.1
	c-0.1,1.6-1.7,5.1-1,6.5c0.9,1.7,0.7,4.9,0.6,6.9c-0.2,3,1.6,4.9,1.3,7.8c-0.3,3.2,0,5.3,0.2,7.5c-0.3,2-1,3.6-3.9,4.1
	c-1.5,0.3-3.4-0.5-4.8,0c-1.3,0.5-3.4,0.8-4.8,1c-2.5,0.3,1.9,2.2,3.7,1.4c6.8,1.2,7.7,0.9,9.3,1.9c-0.3,1,1.4,4.4,1.9,5.3
	c0.1,0.2,0.1,0.3,0.2,0.5c-0.1,1,0,1.9,0.2,2.9c-0.1,0.9-0.2,1.8-0.1,2.6c0.3,0.1,0,20.2,2.8,19.7c1.7-0.3,3.6-14.6,2.3-17.2
	c2.1-1.6-0.3-3.2,0.5-5.5c0.7-2.4,1-3.9,1.2-5.1c0.1-0.1,0.1-0.3,0.2-0.5c1-2.6,4.7-3.6,7-1.6c1.7,1.5,10.3-0.7,8.8-2.1
	c-0.4-0.4-2.9-2-3.5-1.2c-1.1-0.8-1.7,0.3-2.7-0.1c-0.9-0.3-2.3-0.8-3.3-1.2c-0.8-0.3-3.8-0.8-4.5-0.4c-2.3-1.5-2.3-5.7-2.7-5.8
	c0.2-1,0.4-6.4,0.2-9.3c1.8-1.2,0.9-4.4,0.7-6.3c-0.3-2.8-1.5-5.3-1.4-8.1c0.3-5.6-1.2-12,0-18c1.2-5.7,1.2-2.2,4.2-0.4
	c3.2,1.9,6,26.3,8.2,27.8c1.6-1.9,0.8-4,1-6.2c-1-1.2,0.3-6.6,0.2-8.3c-0.4-6.8-3.4-13.1-5.8-19.4c-0.8-2.1-2.7-3.2-3.4-5
	c-0.6-2.8-1.3-7.1-3.1-9.4C25.1,13,26,5,22,1.5C19.5,3.2,19.6,12,19.2,14.7z"/>
</svg>
