<?xml version="1.0" encoding="utf-8"?>
<!-- Generator: Adobe Illustrator 22.1.0, SVG Export Plug-In . SVG Version: 6.00 Build 0)  -->
<svg version="1.1" id="Layer_1" xmlns="http://www.w3.org/2000/svg" xmlns:xlink="http://www.w3.org/1999/xlink" x="0px" y="0px"
	 viewBox="0 0 59 103" style="enable-background:new 0 0 59 103;" xml:space="preserve">
<style type="text/css">
	.st0{fill-rule:evenodd;clip-rule:evenodd;fill:#FFFFFF;}
</style>
<path class="st0" d="M30.1,66.4c-2,0.4-8.2-1-10-2.7c-0.1-1.1-2.3-3.1-3.4-3.1c-1.1-1.4-1.1-2.9-2.3-4.2c-0.2-2.6-0.1-3.7-0.1-6.3
	c0.6,0,1.7-4.5,1.8-5.3c0.6,0,3-3.6,3.7-4.3c2.9-2.9,7.9-4.1,11.5-3.2c5.7,1.4,11,2.9,13,10.3c-0.4,1.3,1.4,7.4-0.4,7.8
	c0.9,3-2.7,7.7-4,9.8C35.8,66.8,33.4,66.4,30.1,66.4 M31.3,58.3c1.6-1.2,2.1-2.6,3.3-4c0,0,1.6-3.4,0.4-2.9c0-2.6-4.8-5.3-7.2-4.4
	c-2.3,0.9-5.6,1.9-5.5,5.6c0.2,3.3,4.3,6.9,6.9,5.9L31.3,58.3z M56.1,52.3c2,0-4.1-14-5.7-15.2c-3.6-2.7-4.7-6.2-8.9-7.8
	c-4.6-1.7-9.6-6.4-10.1-11.1c-0.6-4.9,1.4-13.2-2.6-17.1C27.6,4,27.5,7,27.4,9.9c-0.1,3.2-0.3,4-1.9,6.7c-1.6,2.7-3.6,7.1-3.4,10.1
	c-1.5,0.4-2.8,4.1-4.5,4.5c-1.4,0.4-3.5,1.6-4.7,2.5C11,34,7.3,38,7.2,40c-2,0-3.9,7-4.2,8.7C2,52.6,2.6,60.1,5.8,63
	c5.3,10.4,6.5,10.4,16.2,11.9c3.7,0.6,4.4,4.7,6.7,7.8c0.4,2.7-0.3,5.6,0.4,8.3c0.4,1.7,1.5,3.6,1.5,5.3c-0.1,1.1,1.6,8.2,2.9,4.3
	c0.3-1-0.3-4.8-0.3-6.2c0-2.2,1-2.7,1.3-4.6c0.7-4.1,0.3-7.9,3.8-11.1c1.5-1.4,3.2-1.2,4.8-2.1c1.2-0.7,3.6-2.8,4-4
	c1.2-2.2,3.4-2.3,4.9-3.8c0.9-0.9,1.9-3.8,2.4-5.1C55.9,59.7,55.5,56.4,56.1,52.3"/>
</svg>
