<?xml version="1.0" encoding="utf-8"?>
<!-- Generator: Adobe Illustrator 22.1.0, SVG Export Plug-In . SVG Version: 6.00 Build 0)  -->
<svg version="1.1" id="Layer_1" xmlns="http://www.w3.org/2000/svg" xmlns:xlink="http://www.w3.org/1999/xlink" x="0px" y="0px"
	 viewBox="0 0 68 73" style="enable-background:new 0 0 68 73;" xml:space="preserve">
<style type="text/css">
	.st0{fill-rule:evenodd;clip-rule:evenodd;fill:#FFFFFF;}
</style>
<path class="st0" d="M20.3,62c0.1-0.4,4.8-1.9,5.5-2.3c2.1-1.2,1-4.7-1.1-4.7c-2.6-1.6-2.6-4.6-6.4-4.4c-1.8,0.1-8.5-2.7-8.5-4.9
	c-2.4-1.4-9.1-6.5-7.5-10.1c1.9,0.7,1.6,3.4,3.5,4c1.3,0.1,2.5,1.3,3.5,1.3c0,2.4,11.6,5,6.8-2.9c-1.1-1.8-3.6-2.4-4.5-3.9
	c-0.8-1.6-0.9-3.6-1.5-5.3c-0.6-1.5,0.1-4.4-0.1-6.2c-0.2-1.9,1.1-3.1,1.1-4.6c1.4-0.4,0.4,2.2,0.3,2.6c-0.4,2.6-0.1,3.7,0.8,6.1
	c0.8,2.1,1.5,3.2,3.9,3.2c3.2,0,2.2-2.5,2.3-5c0.3-5.5,1.4-11.1,4.1-15.9c1.5-2.7,3.5-6.4,7-6.8c0.5,1.1-3.2,5.1-4,5.3
	c-0.3,1.3-0.9,2.5-1.8,3.5c0,3.2,0.5,0.8,0.9,2.6c2.9,0,5.6-2.1,7.9-3.7c1.3-0.9,3-3.2,4.7-3.7c1.2-0.3,5.9-0.8,6.8-1.8
	C45.4,3.1,49,3,50.6,2.8c2.9-0.4,5.9,0,8.6,1.1C61,4.6,64.4,5.4,66,6.6c-0.1,0.7-4.3-0.4-5-0.4c-3.3-0.1-5.2,0.1-8.1,1.4
	c-3.5,1.6-6,3.9-9,6.1c-1,0.7-2.2,1.4-3.4,1.8c-1.2,1.8-5.8,2.3-7.2,3.8c-1.9,2.2-3.8,3.3-4.8,6.1c-1.1,3.1-2.1,5.6-2.5,8.9
	c-1,7.2,4.1,17.7,12.5,17.2c8.6-0.5,15.5-5.6,17.4-14.2c1.7-7.9-16.8-11.6-15.7-3c0.5,4-3.9,3.9-3.5-1c0.3-3.7,4.9-6.9,7.6-9
	c3.5-2.7,7.4-3.2,11.1-0.7c2.3,1.5,6.1,4.1,6.5,7.2c0.4,0.1,2.1,4.7,2.2,5.3c0.3,0,1.3,4.8,1.3,5.3c1.7,0.4,0,8.8,0,10.1
	c-1-0.3-1.6-2.5-2-3.4c-1.1-2.9-2.7,0-3.7,0.8c-0.1,2.5-2.4,4.5-2.2,6.8c0.1,2.1-4,14.9-7.7,13.8c-1.1-0.4,2.2-6.1,2.9-6.4
	c0-1.9-0.3-4.2-0.4-5.7c-2.2,0-5.5,1.3-7.1,3c-1.8,1.8-2.6,5.8-4.7,6.9c-0.8,0.4-1.8,0.9-2.7,1.1c-0.5,1-2.4,3.4-3.6,3.8
	c-5.1,1.8,0.4-3.9,1.7-4.9c1.4-1,2.3-3,2.3-4.7c0-1.8-1.5-1.5-3.1-1.8c-4-0.8-6.2,1.5-10.4,2.4c-2.3,0.5-4.6,0.7-7,0.7
	c-1.5,0-2.7-1.3-3.8-1.3C14.9,61.2,18.7,62.2,20.3,62"/>
</svg>
