<?xml version="1.0" encoding="utf-8"?>
<!-- Generator: Adobe Illustrator 22.1.0, SVG Export Plug-In . SVG Version: 6.00 Build 0)  -->
<svg version="1.1" id="Layer_1" xmlns="http://www.w3.org/2000/svg" xmlns:xlink="http://www.w3.org/1999/xlink" x="0px" y="0px"
	 viewBox="0 0 51 119" style="enable-background:new 0 0 51 119;" xml:space="preserve">
<style type="text/css">
	.st0{fill-rule:evenodd;clip-rule:evenodd;fill:#FFFFFF;}
</style>
<path class="st0" d="M27.4,116c-0.3-0.2-1-0.1-1.8-0.6c-0.4-0.9-0.4-3.4-0.2-4.3c-0.3-3.6-1.1-7.3-0.9-9.1c-0.4-3.1-1.3-5-1.5-6
	c-0.3-1.3,0.1-3.4-0.4-5.3c-0.5-1.5,0.4-7.2-0.2-9.9c-0.5-0.4,0-5.1,0.5-5.6c-0.4-1.6-1.1-2.1-1.1-4.9c-1-3.7-1.4-8.4-1.3-12.4
	c0.2-5.7-0.7-10.3-0.4-16c0.1-1.8,0.4-3.6,0.5-5.4c0.1-1.7,1-7.1-0.8-8.5c-0.2,0.2-2.7,0.1-3.1-0.2c-4.1-1-14.1,2.7-15,1.8
	c0.8-1.8,2.4-2.7,3.8-3.9c1.2-1,4.5-1.5,6-1.5c0.5-0.7,1.7-0.8,2.3-1.8c0.7-1.1,0-2.3,0.9-3.3c-0.2-0.8-0.9-4.5-0.6-5.3
	c1.6-4.9,3.6-8.4,7.6-11.7c2.6-2.1,9.4,1.8,10.8,4.4c1.1,2.1,3.5,7,1.2,9.2c-0.1,2.6-2.7,4.2,0.4,5.7c1.1,0.5,1.7,0.8,2.8,1.4
	c1.2,0.6,2.6,0.9,4.2,1.9c1.3,0.3,0,2.4-1.4,1.6c-0.9-0.5-2.8-0.1-4.4-0.2c-2.7,0.5-5.8-0.9-7.6,1.3c-1.6,2-1,7.2-1.8,9.2
	c0.7,3.5-1.4,2.7,1.7,5.2c1.8,1.5,3-0.1,4.7,1.1c1.3-0.6,4.5,1,3.5,2.5c-2.2,3.5-10.7-1.4-9.1,5.4c1.9,1.6,4.4,0.6,6.9,0.9
	c1,0.1,3.5,1.7,1.8,2.6c-1.6,0.8-3.7,0.7-5.4,0.4c-1.4-0.3-1.6-0.9-2.6,0.4c-1.1,1.4-1.3,3.1,0,4.2c1.9,1.6,4.2-0.7,6.3,0.6
	c0.9,0.5,1.5,0.4,1.9,1.5c0.3,0.8,0.3,1-1.3,1.7c-1.7,1.3-3.7-0.4-5.5,0.5c-1.9,2.4-1.8,4.2-1.2,6c0.6,0.3,1.6,1.8,2.3,2.3
	c1.3,0,2.5-0.4,3.7-0.8c3-1,6.2-1.7,7.9-4.5c1.2-2,2.1-4.4,3.3-6.1c-0.3-0.3,0.5-3.3-0.4-6.3c0-1.3,1.9-6.8,3.6-1.7
	c1.5,4.5-0.6,10.6-2.4,15c-0.9,2.2-2.9,3.9-4.3,5.9c-1.3,1.8-1.5,4.1-2.6,5.9c-2.2,3.7-2.9,3.9-4,8.2c-1.3,5.3-4,9.3-4.9,14.8
	c-0.5,2.9-0.5,7.1-1.7,9.7C27.4,112.9,28,114.6,27.4,116 M29.5,13.5c0.5-2.1,0.4-2.6-1.4-4.5c-0.5-1.3-3-1.5-3.6-1.6
	c-1.8-0.4-5,2.2-5.2,4.5c-1.2,2.6-0.5,8.3,4.6,7.8C26,19.5,29.4,17.6,29.5,13.5"/>
</svg>
