<?xml version="1.0" encoding="utf-8"?>
<!-- Generator: Adobe Illustrator 22.1.0, SVG Export Plug-In . SVG Version: 6.00 Build 0)  -->
<svg version="1.1" id="Layer_1" xmlns="http://www.w3.org/2000/svg" xmlns:xlink="http://www.w3.org/1999/xlink" x="0px" y="0px"
	 viewBox="0 0 104 59" style="enable-background:new 0 0 104 59;" xml:space="preserve">
<style type="text/css">
	.st0{fill-rule:evenodd;clip-rule:evenodd;fill:none;}
</style>
<path class="st0" d="M67.4,28.7c0.4,2-1,8.2-2.6,10c-1.1,0.1-3.1,2.3-3.1,3.4c-1.4,1.1-2.9,1.1-4.2,2.3c-2.6,0.2-3.7,0.1-6.3,0.1
	c0-0.6-4.5-1.7-5.3-1.8c0-0.6-3.6-3-4.3-3.7c-2.9-2.9-4.1-7.9-3.2-11.5c1.4-5.7,3.2-9.3,10.6-11.3c1.3,0.4,7.1-3.2,7.5-1.3
	c3-0.9,7.7,2.7,9.8,4C67.9,23,67.4,25.3,67.4,28.7 M59.3,27.4c-1.2-1.6-2.6-2.1-4-3.3c0,0-3.4-1.6-2.9-0.4c-2.6,0-5.3,4.8-4.4,7.2
	c0.9,2.3,2.1,6.8,5.6,5.5c2.6-1,6.9-4.3,5.9-6.9L59.3,27.4z M53.3,2.7c0-2-14,4.1-15.2,5.7c-2.7,3.6-10.4,3.1-10,9.2
	c0.3,4.9-4.2,9.2-8.9,9.8C14.4,27.9,6.1,26,2.3,30c2.7,1.1,5.8,1.3,8.7,1.3c3.2,0.1,4,0.3,6.7,1.9c2.7,1.6,7.1,3.6,10.1,3.4
	c0.4,1.5,4.1,2.8,4.5,4.5c0.4,1.4,1.6,3.5,2.5,4.7c0.2,1.9,4.2,5.6,6.2,5.7c0,2,7,3.9,8.7,4.2c4,0.9,9.5,0.2,12.5-2.9
	c7.1-3.6,11.2-9.3,13.8-16.1c1.3-3.5,4.7-4.4,7.8-6.7c2.7-0.4,5.6,0.3,8.3-0.4c1.7-0.4,3.6-1.5,5.3-1.5c1.1,0.1,8.2-1.6,4.3-2.9
	c-1-0.3-4.8,0.3-6.2,0.3c-2.2,0-2.7-1-4.6-1.3c-4.1-0.7-7.9-0.3-11.1-3.8c-1.4-1.5-1.1-3.2-2.1-4.8c-0.7-1.2-2.8-3.6-4-4
	c-2.2-1.2-2.3-3.4-3.8-4.9C68.9,6,66,5,64.8,4.5C60.7,2.9,57.5,3.2,53.3,2.7"/>
</svg>
