<?xml version="1.0" encoding="utf-8"?>
<!-- Generator: Adobe Illustrator 22.1.0, SVG Export Plug-In . SVG Version: 6.00 Build 0)  -->
<svg version="1.1" id="Layer_1" xmlns="http://www.w3.org/2000/svg" xmlns:xlink="http://www.w3.org/1999/xlink" x="0px" y="0px"
	 viewBox="0 0 44 120" style="enable-background:new 0 0 44 120;" xml:space="preserve">
<style type="text/css">
	.st0{fill-rule:evenodd;clip-rule:evenodd;fill:#FFFFFF;}
</style>
<path class="st0" d="M42.4,75.5c0-3.4-0.5-6.1-0.9-8.8c-0.7-4.2-3.3-5.8-5.4-8.6c0.1-3.1-6.5-4.5-8-6.6c-2.8-4.2-1.1-2-1.6-6.8
	c-0.2-2.1-0.2-1.7-0.4-3.8c0-0.1,0-0.3,0.1-0.5h0.3v-1.2c0.2-0.7,0.2-2.2,0-2.2l-1.6-11.2c-0.1-0.2-0.2-0.4-0.3-0.6
	c0.5-2,0.8-2,0.3-4.1c0.6-1.1-0.3-1.9-0.6-3c-1.2-4-1.7-12.4-1.7-16c0.4-0.4-1.4-1-1.6,0.1c-0.8-0.6-0.2,2.4-0.5,2.6
	c-0.8-0.5-1.2,7.1-1.5,9.2c-0.2,1.5-0.5,4.3-0.5,7.7c0,1.8,0,2.9-0.2,4.1H18v0.7c-0.1,0.5-0.2,1.8,0,1.8v7.9c-0.1,0-0.2,0-0.2,0
	c0.1,0.2,0.2,0.5,0.2,0.9V39c0,0.2,0,0.4,0,0.5v0.9h0.2c0.1,0.3,0.1,0.8,0.2,1.5c0.1,3.6-0.3,1.5,1,5c0.7,1.8-0.1,0.7,0.2,2.6
	c-2.2,3.5-4.7,0.8-5.7,2.2c-1.2-0.6-2.9,1.7-4.1,2.4c-2.2,1.3-4.4,2.6-5.6,5c-2.3,4.5-1.5,11.8-1.3,16.5C2.9,77,3,79.8,3.2,82.9
	c-0.2,0-1,13-0.8,19.2c0.1,2.1,2.3,11.9,2.8,9.5c2.3-10.9,2.3-9.5,2.3-12.2c0-1,0.4-8.7,0.2-14.3c0.2,0-0.5-4.6-0.6-5.4
	c-0.2-2.2-0.2-4-0.3-6.2C6.6,70.9,9,66.2,11.3,65c3.4-1.8,4-2.1,7.4,0c1.2,5.6,0.2,11.2-0.4,16.9c-0.2,0-0.7,6.2-0.5,8.1
	c0.8,6.5,3,22.1,3.6,23.9c1.6,6.4,2.5,1.7,3.7-3.3c0.8-1.2,0.6-7.3,0.8-11.5c0.1-1.9,0.1-12.7-0.1-17.4c0,0-0.1,0-0.1,0
	c0.1-5.2,0.6-10.9,1-12.4c1-3-1.3-3.6,2.1-5.8c2.8,0.6,3.4,0.2,5.7,2.8c2.3,2.7,3.5,9.8,3.7,13c0.1,2.4,0.6,5.8-0.1,8.1
	c-1.1,3.5,0.7,9.7,2.1,13.1c1.1-1.4,1.8-6.3,2-8.3c0.3-3.2-0.2-5.2,0.1-7.7C43.1,77.9,42.2,75.1,42.4,75.5z"/>
</svg>
