<?xml version="1.0" encoding="utf-8"?>
<!-- Generator: Adobe Illustrator 22.1.0, SVG Export Plug-In . SVG Version: 6.00 Build 0)  -->
<svg version="1.1" id="Layer_1" xmlns="http://www.w3.org/2000/svg" xmlns:xlink="http://www.w3.org/1999/xlink" x="0px" y="0px"
	 viewBox="0 0 51 103" style="enable-background:new 0 0 51 103;" xml:space="preserve">
<style type="text/css">
	.st0{fill-rule:evenodd;clip-rule:evenodd;fill:#FFFFFF;}
</style>
<path class="st0" d="M15.8,74.1c-1.6,5-0.1,10.3,4.8,13.2c3.2,1.9,7.8,0,10.6-1.6c3.4-2,3.3-3.8,5-6.6c1.6-2.6,0-6.3-1.4-8.7
	c-0.9-1.5-1.7-3-2.3-4.7c-1.6-1.2-3.1-2.5-4.4-4c-0.9,0.1-2.6-0.4-3.5-0.4c-1.6,1.2-2.9,2.7-4,4.3C19.2,67.7,15.1,71.5,15.8,74.1
	 M30.3,11.2c1.3,2,1.3,3.3,3,4.9c1.5,1.3,3.5,3.1,4.5,4.7c1.3,2.1,1.9,4.5,3.1,6.6c1.3,2.3,2.2,5.2,2.7,7.7c1.1,5-4,11.1-7.7,14.5
	c-2,1.8-6.5,4-3.2,6.4c1.1,0.9,4.1,1.7,4.1,3.2c3.5,2.9,5.1,7.6,8.6,10c3.3,2.3,5.2,6.2,4,9.6c-1.2,3.6-2.2,9.7-6.1,11.9
	c-1.8,1-2.6,2.4-4.3,3.7c0.1,1.3-3.4,2.3-4.4,3.4c-1.8,2.1-4.2,1.8-6.8,2.3c-3.5,0.7-7.2,1.9-10.9,1.1c-2.6-0.4-3-3.8-3.1-5.7
	c-0.1-2.7-3-4.2-5.5-4.9c-4.5-1.2-3.8-6.9-6.3-9.6c-1.3-1.4-0.7-3.9,0.1-5.4c0.9-1.7,3.7-5.3,5.4-6.6c3.6-2.5,7.7-7.4,7.7-11.6
	c-1.7-1.7-2.3-4.3-4.8-5.2c-2.7-0.6-3.6-4.1-4.4-6.2c-0.7-2-2-3.1-2.5-5.4c-0.5-2.5-1.2-5.5-0.6-8c0.1-3.1,3.5-15.3,7.5-15.2
	c0,2.3,0.6,3.4-0.4,5.6c-1.2,2.8-1.6,5.2-2.2,8.3c-0.8,3.9-0.3,9,3.4,11.4c1.1,0.7,1.5,2.4,2.3,3.3c1.7,1.8,4.6,0.6,6.6,2.6
	c1.1-0.3,2.6,1.6,4.2,1.6c2.9,0,3.6-2.1,5.9-3.6c0-0.6,2.2-3.5,2.7-3.9c1.7-1.1,3.5-5.3,3.7-7.1c0.3-3.6,0-6.3-1.9-9.3
	c-1.1-1.7-1.3-4.3-3.1-5.4c-1.4-0.9-2.5-4-3.3-5.4c-1.5-2.6-1.9-5.5-1.6-8.4c0.1-0.6,0.2-7,2.4-5C30.8,3.7,30.1,9.1,30.3,11.2"/>
</svg>
