<?xml version="1.0" encoding="utf-8"?>
<!-- Generator: Adobe Illustrator 22.1.0, SVG Export Plug-In . SVG Version: 6.00 Build 0)  -->
<svg version="1.1" id="Layer_1" xmlns="http://www.w3.org/2000/svg" xmlns:xlink="http://www.w3.org/1999/xlink" x="0px" y="0px"
	 viewBox="0 0 43 122" style="enable-background:new 0 0 43 122;" xml:space="preserve">
<style type="text/css">
	.st0{fill-rule:evenodd;clip-rule:evenodd;fill:none;}
</style>
<path class="st0" d="M18.2,1.5C20.7,3.1,21,12,21.6,14.6c1.2,5.4,3.3,8.2,6.9,12.7c3.2,4,6.7,10.6,8.8,15.3c2.6,5.7,3.6,11,4,17.1
	c-0.9,1,0.3,4.2,0.1,5.6c-0.2,2.5-1.4,5.1-1.1,7.5c0.2,2.3-1.3,4.4-0.4,6.6c1.5,3.4-3,1.6-2,0.3c-1.5-1.3-0.9-25.9-1.3-26.9
	c-2.2-4.9-3.6-7.7-6.8-11.6c-0.7-0.9-1.5-1.8-2.6-2.7c-2.2-1.8-0.9,0-2.5-0.9c-2.5,3.1,0,5-1.3,8.6c0.7,1.2,0,4.5,0.2,6.1
	c0.2,1.6,1.9,5,1.3,6.4c-0.8,1.7-0.4,5-0.2,6.9c0.3,3-1.4,5-0.9,7.8c0.9,6-0.7,8.3,0.7,14c0.9,3.8-2.5,2.3-1.8,6
	c0.4,2.2,0.6,3.9-0.2,6.3c-0.7,2,1.9,21.2-1.2,20.7c-1.7-0.2-4.3-14.4-3.1-17.1c-2.2-1.6,0.2-3.2-0.8-5.4c-2.3-6.3-1.1-6.3-1.8-12.7
	c-0.2-1.8,0.8-1.6,0.7-3.6c-0.1-1.3-1.1-3.2-0.3-4.4c-0.4-3.1-0.8-3.6-0.6-6.5c-1.9-1.1-1.1-4.3-1-6.3c0.2-2.8,1.3-5.3,1-8.2
	c-0.6-5.7,0.6-12.3-0.9-18c-1.4-5.6-1.3-2.1-4.2-0.2c-3.1,2-4.8,26.6-6.9,28.2c-1.7-1.8-1-4-1.2-6.1c1-1.2-0.6-6.5-0.6-8.3
	c0.1-6.9,2.8-13.2,4.9-19.6c0.7-2.1,2.5-3.3,3.2-5.2c0.5-2.9,1-7.1,2.7-9.5C15.6,13.1,14.4,5.2,18.2,1.5"/>
</svg>
