<?xml version="1.0" encoding="utf-8"?>
<!-- Generator: Adobe Illustrator 22.1.0, SVG Export Plug-In . SVG Version: 6.00 Build 0)  -->
<svg version="1.1" id="Layer_1" xmlns="http://www.w3.org/2000/svg" xmlns:xlink="http://www.w3.org/1999/xlink" x="0px" y="0px"
	 viewBox="0 0 88 65" style="enable-background:new 0 0 88 65;" xml:space="preserve">
<style type="text/css">
	.st0{fill-rule:evenodd;clip-rule:evenodd;fill:#FFFFFF;}
</style>
<path class="st0" d="M82.2,53.1c0,1.1-3,4.5-3.8,3.6c-1.1-1.3,1.3-5.6,1.7-6.7c1.1-2.7,0.7-6.8-0.6-9.4c-1.8-3.7-2.8-4.6-7.3-4.5
	c-6.4,0.2-23.6-2.1-23.6,7.4c0.4-0.1-2.1,6.5-2.2,7.7c-0.3,4.1,0.6,8.5-0.5,12.6c-4.6-3.6-2.8-12.5-3.5-17.4
	c-0.3-1.8-0.6-7.5-2.4-7.7c-2.9-0.4-2.5-1.2-5.2-0.9c-2,1.1-3.9,0.7-7.8,0.6c-2.6-0.1-4.3-1.3-6.6-0.6c-0.6,1-1.7,0.2-2.5,0
	c-1.3-0.3-3.2,1.3-4.1,2c-2,1.5-5.6,4-5.3,7c0.2,2.1,0.8,4.8,0.7,6.4c0.9,3.1,6.4,6.9,4.2,6.7c0.1,0.5-6.2-0.7-7.5-4.3
	c-2.1-4-2.6-9.1-3.5-13.6c-1.2-6.6-1.1-11-0.4-17.8c0.1-1.3,0.7-10,2.7-11.1C4.6,12,9.1,9.5,9.1,7.8c1.7-0.4-0.3,5.8-0.5,6.5
	c-1.6,3.9-0.9,5.8,0.1,9.7c3.9,7.1,15.7,4.7,22.2,4.2c4.5-0.3,6.5,0.6,9.5-2.9c-0.1-1.6,0.8-1.2,0.8-3c0-2.1,1.5-4.1,1.5-6.2
	c0.1-3.1-0.8-4.7-1.2-7.3c-0.4-2.7,1.4-5.1,1.5-7.6c5.1,3,1.9,12.4,4.1,16.8c1.2,2.5,0.2,4.3,1.7,6.6c2.3,3.6,6.7,2.8,10.5,2.5
	c6.1-0.6,21,3.4,20.9-6.7c-0.1-5.5-1-6.4-3.1-10.5c-0.6-1.1-0.6-5.4,1.3-4.7c2.2,0.9,2.5,5.3,3.9,7.2c4.3,5.7,4.5,11.7,4.7,19.1
	C87.1,37.9,86.8,48.2,82.2,53.1"/>
</svg>
