<?xml version="1.0" encoding="utf-8"?>
<!-- Generator: Adobe Illustrator 22.1.0, SVG Export Plug-In . SVG Version: 6.00 Build 0)  -->
<svg version="1.1" id="Layer_1" xmlns="http://www.w3.org/2000/svg" xmlns:xlink="http://www.w3.org/1999/xlink" x="0px" y="0px"
	 viewBox="0 0 56 62" style="enable-background:new 0 0 56 62;" xml:space="preserve">
<style type="text/css">
	.st0{fill-rule:evenodd;clip-rule:evenodd;fill:#FFFFFF;}
</style>
<path class="st0" d="M34.1,2.5c1.4-0.1,3.1,0.7,4.6,0.8c1.6,0.2,4.2,2.4,5.1,3.6c0,0.7,2.7,3.5,3.4,4c0.8,0.6,1.9,3.8,1.9,4.8
	c0.1,0,1.6,3.5,1.7,3.8c0.4,1.6,2.7,2.4,3.2,4.2c0.8,3.3-0.5,7.1-1.8,10.2c-1.8,4.4-2.4,8-6.1,11.2c0,2.1-4,4.3-5.9,4.9
	c-0.5,1.4-2.8,1.3-3.6,2.5c-0.7,1-2.3,1.4-3.2,2.3c-0.5,0.5-4.1,2.6-4.7,2.6c0,0.6-3,2.2-3.6,2.4c-1.2,0.4-4.5-0.4-5.4-1.3
	c0-1.1-0.6-1.7-1.8-1.9c-0.6-0.3-4.7,0-5-0.7c-1.6-3-2.4-2.9-2.9-6.4C7.8,49.6,3.8,40.9,3.2,39c-0.9-3-1.6-5.9-1.4-9
	c0.1-2.7,1-5.7,0.6-8.1c-0.4-2.8,0-7.4,2.4-9.8c0.6-0.1,1.2-0.3,1.7-0.7c1.7-0.1,1.5-1.1,2.8-2.1C10.2,8.7,11.4,7,12,6.7
	c3.1-1.7,6.2-4.3,10.2-4.3C26.4,2.4,30.2,1.1,34.1,2.5 M42.5,22.8c0-4.2-4.1-9.4-7.8-9.4c-2.5-0.2-10-2.6-12.8-0.7
	c-3.7,2.6-6.9,4.4-9.3,9.2c-2.4,0-2.2,9.2-2.2,9.7c0,5.8,5,7,7.9,11.9c1.6,0.1,11.9,3.7,11.9,1.8c2.5-0.1,3.8-2.5,5.7-3.5
	c2.6,0,4.3-5.4,5.7-7C41.6,33.6,44.1,22.4,42.5,22.8 M33.7,25.4c-1.3-3-4.4-7.2-7.8-4.8c-1.3,0.9-4.1,1.8-4.6,3.6
	c-0.2,0.6-0.4,4.7,0.8,4.7c0,1.9,1.4,4,3,5.2c0.4,0.3,3.8,1.2,3.9,0.1C32.5,33.9,34.8,29,33.7,25.4"/>
</svg>
