<?xml version="1.0" encoding="utf-8"?>
<!-- Generator: Adobe Illustrator 22.1.0, SVG Export Plug-In . SVG Version: 6.00 Build 0)  -->
<svg version="1.1" id="Layer_1" xmlns="http://www.w3.org/2000/svg" xmlns:xlink="http://www.w3.org/1999/xlink" x="0px" y="0px"
	 viewBox="0 0 45 119" style="enable-background:new 0 0 45 119;" xml:space="preserve">
<style type="text/css">
	.st0{fill-rule:evenodd;clip-rule:evenodd;fill:none;}
</style>
<path class="st0" d="M8.6,34.8c1.9-0.1,4.4,0.2,6-0.7c2.9,1.5,3.9,0.3,4.6,4.4c-0.4,2.2,0.1,1.9,0.2,4c0.1,3.6-0.3,1.5,1,5
	c0.7,1.8-0.1,0.7,0.2,2.6c-2.2,3.5-4.7,0.8-5.7,2.2c-1.2-0.6-2.9,1.7-4.1,2.4c-2.2,1.3-4.4,2.6-5.6,5c-2.3,4.5-1.5,11.8-1.3,16.5
	c0.1,1.4,0.2,4.3,0.4,7.4c-0.2,0-1,13-0.8,19.2c0.1,2.1,2.3,11.9,2.8,9.5c2.3-10.9,2.3-9.5,2.3-12.2c0-1,0.4-8.7,0.2-14.3
	c0.2,0-0.5-4.6-0.6-5.4c-0.2-2.2-0.2-4-0.3-6.2c-0.2-2.6,2.3-7.3,4.6-8.5c3.4-1.8,4-2.1,7.4,0c1.2,5.6,0.2,11.2-0.4,16.9
	c-0.2,0-0.7,6.2-0.5,8.1c0.8,6.5,3,22.1,3.6,23.9c1.6,6.4,2.5,1.7,3.7-3.3c0.8-1.2,0.6-7.3,0.8-11.5c0.1-1.9,0.1-12.7-0.1-17.4
	c0,0-0.1,0-0.1,0c0.1-5.2,0.6-10.9,1-12.4c1-3-1.3-3.6,2.1-5.8c2.8,0.6,3.4,0.2,5.7,2.8c2.3,2.7,3.5,9.8,3.7,13
	c0.1,2.4,0.6,5.8-0.1,8.1c-1.1,3.5,0.7,9.7,2.1,13.1c1.1-1.4,1.8-6.3,2-8.3c0.3-3.2-0.2-5.2,0.1-7.7c0.8-6.6-0.2-9.4,0-9
	c0-3.4-0.5-6.1-0.9-8.8c-0.7-4.2-3.3-5.8-5.4-8.6c0.1-3.1-6.5-4.5-8-6.6c-2.8-4.2-1.1-2-1.6-6.8c-0.2-2.1-0.2-1.7-0.4-3.8
	c-0.1-0.7,1.4-5.2,1.2-5.3c2-3.2,6.1-2.1,9.8-1.8c1.7,0.2,7.9,0.8,4-2.5c0-0.9-4.5-1.7-4.8-1.4c-0.9-0.5-1.8-0.3-2.4,0.6
	c-1.5-0.2-3.1-0.3-4.6-0.3c-4.4,0.1-3.2-2.2-4.6-4.9c0.5-2,0.8-2,0.3-4.1c0.6-1.1-0.3-1.9-0.6-3c-1.2-4-1.7-12.4-1.7-16
	c0.4-0.4-1.4-1-1.6,0.1c-0.8-0.6-0.2,2.4-0.5,2.6c-0.8-0.5-1.2,7.1-1.5,9.2c-0.2,1.5-0.5,4.3-0.5,7.7c-0.1,3.3,0.3,4.5-1.5,7.5
	c-2.1,0-6.5,0.4-8.9,0.3c-2.6-0.7-4.3,0.8-6.7,2.2C-0.2,33.7,6.8,34.9,8.6,34.8z"/>
</svg>
